Oz the Great and Powerful 2013 HD-TC XVID AC3 $MURDER$

Complete name                            : Oz the Great and Powerful 2013 HD-TC XVID AC3 $MURDER$
Format                                   : AVI
Format/Info                              : Audio Video Interleave
File size                                : 1.16 GiB
Duration                                 : 2h 4mn
Overall bit rate                         : 1 332 Kbps
Writing library                          : VirtualDub build 30091/release



ID                                       : 0
Format                                   : MPEG-4 Visual
Format profile                           : Advanced Simple@L5
Format settings, BVOP                    : 2
Format settings, QPel                    : No
Format settings, GMC                     : No warppoints
Format settings, Matrix                  : Default (H.263)
Muxing mode                              : Packed bitstream
Codec ID                                 : XVID
Codec ID/Hint                            : XviD
Duration                                 : 2h 4mn
Bit rate                                 : 1 194 Kbps
Width                                    : 656 pixels
Height                                   : 272 pixels
Display aspect ratio                     : 2.40:1
Frame rate                               : 25.000 fps
Color space                              : YUV
Chroma subsampling                       : 4:2:0
Bit depth                                : 8 bits
Scan type                                : Progressive
Compression mode                         : Lossy
Bits/(Pixel*Frame)                       : 0.268
Stream size                              : 1.04 GiB (90%)
Writing library                          : XviD 1.2.1



ID                                       : 1
Format                                   : AC-3
Format/Info                              : Audio Coding 3
Mode extension                           : CM (complete main)
Codec ID                                 : 2000
Duration                                 : 2h 4mn
Bit rate mode                            : Constant
Bit rate                                 : 128 Kbps
Channel(s)                               : 2 channels
Channel positions                        : Front: L R
Sampling rate                            : 48.0 KHz
Bit depth                                : 16 bits
Compression mode                         : Lossy
Stream size                              : 114 MiB (10%)
Alignment                                : Aligned on interleaves
Interleave, duration                     : 40 ms (1.00 video frame)
Interleave, preload duration             : 512 ms



A small-time magician is swept away to an enchanted land and is forced into a power struggle between three witches.




Director:
Sam Raimi

Writers:
Mitchell Kapner (screenplay),
David Lindsay-Abaire (screenplay),

Stars:
James Franco,
Mila Kunis,
Rachel Weisz

Screens: 
http://i.imgur.com/QvMcpZT.png 
http://i.imgur.com/KAPUNy3.png 
http://i.imgur.com/PqPxyLx.png 
http://i.imgur.com/3HO5fPH.png 
http://i.imgur.com/TzI0puy.png